<svg viewBox="0 0 24 24" xmlns="http://www.w3.org/2000/svg" xmlns:xlink="http://www.w3.org/1999/xlink" width="24.000000" height="24.000000" fill="none" customFrame="#000000">
	<path id="3legant." d="M3.37453 6.82227Q3.51516 4.58984 5.08547 3.3418Q6.66164 2.09375 9.11086 2.09375Q10.7866 2.09375 12.0112 2.69727Q13.2359 3.29492 13.857 4.32617Q14.4839 5.35742 14.4839 6.6582Q14.4839 8.14648 13.6929 9.20117Q12.9019 10.2559 11.7945 10.6133L11.7945 10.7129Q13.2124 11.1465 14.0034 12.2891Q14.7945 13.4258 14.7945 15.2012Q14.7945 16.6133 14.1441 17.7207Q13.4995 18.8223 12.228 19.4609Q10.9566 20.0938 9.18117 20.0938Q6.58547 20.0938 4.91555 18.7637Q3.25148 17.4336 3.1343 14.9375L5.77102 14.9375Q5.87062 16.209 6.75539 17.0117Q7.64602 17.8145 9.15773 17.8145Q10.6226 17.8145 11.4136 17.0117Q12.2046 16.209 12.2046 14.9375Q12.2046 13.2559 11.1323 12.5469Q10.0659 11.8379 7.86281 11.8379L7.23586 11.8379L7.23586 9.58203L7.88625 9.58203Q9.8257 9.55859 10.8452 8.9375Q11.8706 8.31055 11.8706 6.96875Q11.8706 5.81445 11.1265 5.13477Q10.3823 4.44922 9.01125 4.44922Q7.66945 4.44922 6.92531 5.13477Q6.18117 5.81445 6.03469 6.82227L3.37453 6.82227Z" fill="rgb(0,0,0)" fill-rule="nonzero" />
	<path id="3legant." d="M19.1423 20.1699Q18.3981 20.1699 17.8942 19.666Q17.3903 19.1621 17.3903 18.418Q17.3903 17.6738 17.8942 17.1699Q18.3981 16.666 19.1423 16.666Q19.8571 16.666 20.361 17.1699Q20.8708 17.6738 20.8708 18.418Q20.8708 19.1621 20.361 19.666Q19.8571 20.1699 19.1423 20.1699Z" fill="rgb(0,0,0)" fill-rule="nonzero" />
	<path id="3legant." d="M19.1423 20.1699Q18.3981 20.1699 17.8942 19.666Q17.3903 19.1621 17.3903 18.418Q17.3903 17.6738 17.8942 17.1699Q18.3981 16.666 19.1423 16.666Q19.8571 16.666 20.361 17.1699Q20.8708 17.6738 20.8708 18.418Q20.8708 19.1621 20.361 19.666Q19.8571 20.1699 19.1423 20.1699Z" fill="rgb(108.109,113.953,116.875)" fill-rule="nonzero" />
</svg>
